:FULLY-SPECIFIED
:FORCE-ALL-JOINTS-BE-3DOF
:DEGREES
97
root 9.40665 16.2928 -23.653 3.3379 -2.32564 3.81586
lfemur -5.10329 0.469408 -29.318
ltibia 21.5154 0 0
lfoot -18.4381 7.38452 0
ltoes -0.897712 0 0
rfemur -32.9628 3.40832 15.9753
rtibia 46.344 0 0
rfoot -20.7959 -10.6863 0
rtoes -18.6273 0 0
lowerback -6.97427 -2.06944 -4.61442
upperback -0.285972 -2.47509 2.17198
thorax 3.91133 -1.33448 4.59984
lowerneck -21.0382 -4.92334 -12.6237
upperneck 19.7564 -5.5519 11.2405
head 10.4944 -2.21187 5.30847
lclavicle -1.28092e-14 2.8625e-14 0
lhumerus -20.563 -21.3389 87.3059
lradius 34.9489 0 0
lwrist 8.70795 0 0
lhand -15.5568 -25.3211 0
lfingers 7.12502 0 0
lthumb 10.6277 4.39014 0
rclavicle -1.28092e-14 2.8625e-14 0
rhumerus -43.5016 11.8454 -87.1022
rradius 38.2832 0 0
rwrist -21.7116 0 0
rhand -30.6228 -23.9346 0
rfingers 7.12502 0 0
rthumb -3.91891 -53.8783 0
98
root 9.4073 16.2931 -23.5272 3.28991 -1.91231 3.86894
lfemur -4.1035 0.351501 -29.3677
ltibia 20.5914 -0 0
lfoot -18.3404 7.16472 -0.000207281
ltoes -1.02819 0 0
rfemur -33.3962 3.71113 15.6759
rtibia 45.0792 -0 0
rfoot -20.796 -10.3028 5.0687e-05
rtoes -18.4611 0 0
lowerback -7.09145 -2.13428 -4.58501
upperback -0.228156 -2.5563 2.11353
thorax 4.04156 -1.37789 4.50921
lowerneck -20.8739 -4.96228 -12.6557
upperneck 19.7831 -5.61209 11.2124
head 10.4819 -2.2501 5.29446
lclavicle -1.4634e-14 2.41192e-14 0
lhumerus -20.4117 -21.895 87.3501
lradius 35.5238 -0 0
lwrist 9.11883 0 0
lhand -15.7406 -25.4523 -0.00220445
lfingers 7.12502 0 0
lthumb 10.4505 4.26956 -0.00179148
rclavicle -1.4634e-14 2.41192e-14 0
rhumerus -43.5494 11.6381 -87.0044
rradius 38.1252 -0 0
rwrist -21.632 0 0
rhand -30.5486 -24.0164 -0.000557333
rfingers 7.12502 0 0
rthumb -3.8473 -53.9613 -0.000547584
99
root 9.40796 16.2933 -23.4013 3.23863 -1.50565 3.88637
lfemur -3.08834 0.285435 -29.3625
ltibia 19.6492 -0 0
lfoot -18.2306 6.90315 0.00136957
ltoes -1.24917 0 0
rfemur -33.7897 4.08289 15.3851
rtibia 43.8005 -0 0
rfoot -20.793 -9.87871 0.000202711
rtoes -18.0354 0 0
lowerback -7.17913 -2.18905 -4.48814
upperback -0.196885 -2.63027 2.04422
thorax 4.12293 -1.4145 4.37011
lowerneck -20.6728 -5.00597 -12.7061
upperneck 19.8375 -5.68674 11.2104
head 10.4759 -2.29469 5.29218
lclavicle -1.64588e-14 1.96134e-14 0
lhumerus -20.348 -22.4353 87.3934
lradius 36.1081 -0 0
lwrist 9.55603 0 0
lhand -15.7849 -25.5728 -0.00317448
lfingers 7.12502 0 0
lthumb 10.4077 4.1518 -0.00262481
rclavicle -1.64588e-14 1.96134e-14 0
rhumerus -43.6528 11.3977 -86.9251
rradius 37.9684 -0 0
rwrist -21.5138 0 0
rhand -30.3834 -24.0592 -0.000767786
rfingers 7.12502 0 0
rthumb -3.68777 -54.0067 -0.000764846
100
root 9.40861 16.2936 -23.2754 3.19158 -1.10722 3.88314
lfemur -2.03317 0.256457 -29.3215
ltibia 18.6266 -0 0
lfoot -18.0829 6.61121 0.00326558
ltoes -1.52761 0 0
rfemur -34.1593 4.50271 15.0889
rtibia 42.5187 -0 0
rfoot -20.7909 -9.43828 0.000321335
rtoes -17.4899 0 0
lowerback -7.24437 -2.23881 -4.36204
upperback -0.189697 -2.70109 1.97532
thorax 4.16497 -1.44747 4.21567
lowerneck -20.4575 -5.04912 -12.7681
upperneck 19.9187 -5.76478 11.222
head 10.4782 -2.34072 5.2975
lclavicle -1.82836e-14 1.51076e-14 0
lhumerus -20.3626 -22.9486 87.4558
lradius 36.6934 -0 0
lwrist 10.0006 0 0
lhand -15.732 -25.6757 -0.0029995
lfingers 7.12502 0 0
lthumb 10.4587 4.04599 -0.00252531
rclavicle -1.82836e-14 1.51076e-14 0
rhumerus -43.803 11.1516 -86.8563
rradius 37.8155 -0 0
rwrist -21.3686 0 0
rhand -30.172 -24.0786 -0.000734482
rfingers 7.12502 0 0
rthumb -3.48362 -54.0293 -0.000739446
101
root 9.40926 16.2939 -23.1496 3.15654 -0.718551 3.87435
lfemur -0.913235 0.250437 -29.264
ltibia 17.461 -0 0
lfoot -17.8714 6.3003 0.00426917
ltoes -1.83043 0 0
rfemur -34.5214 4.94937 14.7737
rtibia 41.245 -0 0
rfoot -20.7937 -9.0057 0.000332826
rtoes -16.9644 0 0
lowerback -7.29417 -2.28877 -4.24489
upperback -0.204146 -2.77285 1.91811
thorax 4.17714 -1.48003 4.07901
lowerneck -20.2508 -5.08656 -12.8344
upperneck 20.0258 -5.8351 11.2352
head 10.4907 -2.38328 5.30634
lclavicle -2.01083e-14 1.06019e-14 0
lhumerus -20.4465 -23.4237 87.5572
lradius 37.2716 -0 0
lwrist 10.4337 0 0
lhand -15.6241 -25.7544 -0.00201857
lfingers 7.12502 0 0
lthumb 10.5628 3.96125 -0.00173045
rclavicle -2.01083e-14 1.06019e-14 0
rhumerus -43.9912 10.9274 -86.7898
rradius 37.6697 -0 0
rwrist -21.2082 0 0
rhand -29.9592 -24.0898 -0.000576467
rfingers 7.12502 0 0
rthumb -3.27814 -54.0439 -0.000581124
102
root 9.40992 16.2941 -23.0237 3.14147 -0.341139 3.87521
lfemur 0.296218 0.253912 -29.2101
ltibia 16.0903 -0 0
lfoot -17.5702 5.9818 0.00342742
ltoes -2.12459 0 0
rfemur -34.8922 5.4013 14.4256
rtibia 39.9901 -0 0
rfoot -20.8053 -8.60518 0.000219826
rtoes -16.5987 0 0
lowerback -7.33548 -2.34414 -4.17484
upperback -0.23781 -2.84961 1.88383
thorax 4.16891 -1.51536 3.99322
lowerneck -20.0756 -5.11319 -12.8979
upperneck 20.1579 -5.88657 11.2375
head 10.5152 -2.41748 5.31457
lclavicle -2.19331e-14 6.09607e-15 0
lhumerus -20.5908 -23.8493 87.7171
lradius 37.8346 -0 0
lwrist 10.8364 0 0
lhand -15.5032 -25.8022 -0.00078804
lfingers 7.12502 0 0
lthumb 10.6794 3.9067 -0.00068977
rclavicle -2.19331e-14 6.09607e-15 0
rhumerus -44.2084 10.7528 -86.7181
rradius 37.5337 -0 0
rwrist -21.0443 0 0
rhand -29.7899 -24.1085 -0.000334849
rfingers 7.12502 0 0
rthumb -3.11463 -54.0653 -0.000333925
103
root 9.41057 16.2944 -22.8979 3.15454 0.0235091 3.90101
lfemur 1.61992 0.25422 -29.1801
ltibia 14.4519 0 0
lfoot -17.1536 5.66707 0
ltoes -2.37701 0 0
rfemur -35.2877 5.83656 14.0309
rtibia 38.7651 0 0
rfoot -20.8297 -8.26092 0
rtoes -16.5326 0 0
lowerback -7.37519 -2.41019 -4.19004
upperback -0.288292 -2.93543 1.88376
thorax 4.1497 -1.55656 3.99138
lowerneck -19.9545 -5.12402 -12.9514
upperneck 20.3143 -5.90799 11.217
head 10.5535 -2.4384 5.31809
lclavicle -2.37579e-14 1.59028e-15 0
lhumerus -20.7865 -24.2139 87.9549
lradius 38.3741 0 0
lwrist 11.1897 0 0
lhand -15.4116 -25.8125 0
lfingers 7.12502 0 0
lthumb 10.7677 3.89148 0
rclavicle -2.37579e-14 1.59028e-15 0
rhumerus -44.446 10.6554 -86.6336
rradius 37.4106 0 0
rwrist -20.8886 0 0
rhand -29.7089 -24.1501 0
rfingers 7.12502 0 0
rthumb -3.03638 -54.1082 0
104
root 9.40793 16.2863 -22.7662 3.20334 0.369449 3.9558
lfemur 3.17758 0.259298 -29.1766
ltibia 12.3036 -0 0
lfoot -16.5161 5.34242 -0.00652083
ltoes -2.61113 0 0
rfemur -35.712 6.24446 13.5881
rtibia 37.5382 -0 0
rfoot -20.8477 -7.93912 -0.000736315
rtoes -16.8655 0 0
lowerback -7.40144 -2.49064 -4.31651
upperback -0.372171 -3.03418 1.9332
thorax 4.09841 -1.60541 4.10459
lowerneck -19.9054 -5.11073 -12.9963
upperneck 20.5277 -5.88518 11.1662
head 10.6187 -2.44034 5.31775
lclavicle -2.53808e-14 3.04803e-15 0
lhumerus -21.0644 -24.4919 88.2995
lradius 38.9026 -0 0
lwrist 11.4951 0 0
lhand -15.3535 -25.7651 0.000308592
lfingers 7.12502 0 0
lthumb 10.8238 3.93602 0.000317114
rclavicle -2.53808e-14 3.04803e-15 0
rhumerus -44.7412 10.683 -86.5488
rradius 37.3167 -0 0
rwrist -20.7356 0 0
rhand -29.7462 -24.2361 0.000401199
rfingers 7.12502 0 0
rthumb -3.07241 -54.1936 0.000387013
105
root 9.40529 16.2781 -22.6346 3.28306 0.696632 4.02852
lfemur 4.97336 0.281278 -29.1831
ltibia 9.64663 -0 0
lfoot -15.6573 4.99595 -0.0130511
ltoes -2.85808 0 0
rfemur -36.1536 6.63961 13.1077
rtibia 36.2943 -0 0
rfoot -20.8524 -7.61366 -0.00212268
rtoes -17.5053 0 0
lowerback -7.40611 -2.58206 -4.52897
upperback -0.494829 -3.14326 2.02634
thorax 4.00311 -1.65958 4.31269
lowerneck -19.9135 -5.07578 -13.0386
upperneck 20.8054 -5.82405 11.0936
head 10.7121 -2.42609 5.31702
lclavicle -2.70037e-14 4.50579e-15 0
lhumerus -21.4384 -24.6859 88.7419
lradius 39.4292 -0 0
lwrist 11.7679 0 0
lhand -15.2959 -25.6614 0.000549609
lfingers 7.12502 0 0
lthumb 10.8793 4.0371 0.000606612
rclavicle -2.70037e-14 4.50579e-15 0
rhumerus -45.1084 10.8231 -86.473
rradius 37.2529 -0 0
rwrist -20.5748 0 0
rhand -29.872 -24.3583 0.000642297
rfingers 7.12502 0 0
rthumb -3.1939 -54.314 0.000614227
106
root 9.40266 16.27 -22.5029 3.38333 1.01239 4.1118
lfemur 6.85867 0.314237 -29.1916
ltibia 6.78448 -0 0
lfoot -14.7088 4.64176 -0.0161423
ltoes -3.09635 0 0
rfemur -36.6053 7.03777 12.5937
rtibia 35.0694 -0 0
rfoot -20.8659 -7.32025 -0.00354604
rtoes -18.3049 0 0
lowerback -7.40169 -2.679 -4.78863
upperback -0.63706 -3.25702 2.14275
thorax 3.88703 -1.71596 4.5718
lowerneck -19.9531 -5.03032 -13.0779
upperneck 21.108 -5.74356 11.0108
head 10.8175 -2.40346 5.31574
lclavicle -2.86266e-14 5.96354e-15 0
lhumerus -21.8735 -24.8265 89.2437
lradius 39.9405 -0 0
lwrist 12.0104 0 0
lhand -15.2255 -25.5269 0.000681944
lfingers 7.12502 0 0
lthumb 10.9473 4.16838 0.000790981
rclavicle -2.86266e-14 5.96354e-15 0
rhumerus -45.5045 11.0132 -86.394
rradius 37.199 -0 0
rwrist -20.4106 0 0
rhand -30.0413 -24.488 0.00049649
rfingers 7.12502 0 0
rthumb -3.35735 -54.4411 0.0004707
107
root 9.40002 16.2618 -22.3713 3.4937 1.32411 4.19815
lfemur 8.68492 0.351762 -29.1947
ltibia 4.02043 -0 0
lfoot -13.8023 4.29404 -0.0143328
ltoes -3.30446 0 0
rfemur -37.0604 7.45491 12.0502
rtibia 33.8992 -0 0
rfoot -20.9104 -7.09462 -0.00419336
rtoes -19.1172 0 0
lowerback -7.4008 -2.77608 -5.05663
upperback -0.779559 -3.36992 2.26187
thorax 3.77349 -1.77177 4.83801
lowerneck -19.9984 -4.98546 -13.114
upperneck 21.3962 -5.66288 10.9294
head 10.9187 -2.38028 5.31372
lclavicle -3.02494e-14 7.42129e-15 0
lhumerus -22.335 -24.9454 89.7664
lradius 40.4232 -0 0
lwrist 12.2245 0 0
lhand -15.1287 -25.3869 0.000650509
lfingers 7.12502 0 0
lthumb 11.0407 4.3035 0.000783141
rclavicle -3.02494e-14 7.42129e-15 0
rhumerus -45.8864 11.1906 -86.2989
rradius 37.1349 -0 0
rwrist -20.2472 0 0
rhand -30.209 -24.5963 4.40253e-05
rfingers 7.12502 0 0
rthumb -3.51929 -54.5468 3.72344e-05
108
root 9.39738 16.2537 -22.2397 3.60367 1.63921 4.27999
lfemur 10.3035 0.386988 -29.1855
ltibia 1.65783 -0 0
lfoot -13.0695 3.96701 -0.00818588
ltoes -3.4609 0 0
rfemur -37.5124 7.90716 11.4808
rtibia 32.8199 -0 0
rfoot -21.0082 -6.97247 -0.00321057
rtoes -19.795 0 0
lowerback -7.41628 -2.86803 -5.29406
upperback -0.902913 -3.47661 2.36308
thorax 3.68592 -1.82457 5.06736
lowerneck -20.0237 -4.9523 -13.1464
upperneck 21.6309 -5.6014 10.8603
head 10.9995 -2.36437 5.31075
lclavicle -3.18723e-14 8.87905e-15 0
lhumerus -22.7888 -25.0754 90.2723
lradius 40.8639 -0 0
lwrist 12.4123 0 0
lhand -14.992 -25.267 0.000408572
lfingers 7.12502 0 0
lthumb 11.1725 4.41612 0.000510714
rclavicle -3.18723e-14 8.87905e-15 0
rhumerus -46.2109 11.2928 -86.1735
rradius 37.0402 -0 0
rwrist -20.0889 0 0
rhand -30.3301 -24.6542 -0.000302555
rfingers 7.12502 0 0
rthumb -3.63624 -54.6029 -0.000291712
